<svg xmlns="http://www.w3.org/2000/svg" xmlns:xlink="http://www.w3.org/1999/xlink" width="220" height="45" viewBox="-2.5 1.5 220 45" xmlns:v="https://vecta.io/nano"><path fill="#ea2227" d="M38.415 12.09l-5.341 1.676L30.7 7.841l5.344-1.673z"/><path fill="#f05926" d="M49.703 17.889l-4.274 1.459-3.273-4.067 4.276-1.459z"/><path fill="#054f8a" d="M46.693 9.073l-4.016.125-1.036-2.907 4.017-.123z"/><path fill="#712e8e" d="M45.285 26.502l-4.233.512-2.363-4.03 4.233-.511z"/><g fill="#0b2c43"><path d="M39.099 28.261l-2.181.265-2.361-4.032 2.139-.257-5.005-8.388-3.757 1.676-3.659-6.768 3.456-1.537-4.227-7.084L-2.5 44.281h25.965l-7.552-12.139 7.711-11.605 14.228 23.744h10.81zM61.238 2.848h4.931l3.961 24.623h-4.608l-.484-3.751h-3.784l-.469 3.751h-4.607l3.961-24.623h4.737v4.349h-1.52l-.21 1.6-.193-1.6h-1.714V2.848zm.549 16.684h2.716L63.145 8.797l-1.358 10.735zm1.568-12.335h-.404L62.4 2.848h1.503l-.548 4.349zm16.744 13.757h4.445v.372c0 .927-.086 1.787-.259 2.579s-.479 1.478-.921 2.062-1.049 1.037-1.819 1.365-1.753.492-2.95.492-2.189-.168-2.975-.508-1.409-.813-1.868-1.416-.778-1.314-.962-2.133-.274-1.708-.274-2.667v-6.111l.016-.89c0-.938.094-1.803.283-2.594s.515-1.472.979-2.038 1.08-1.008 1.851-1.326 1.738-.477 2.902-.477c1.196 0 2.183.167 2.958.501s1.387.792 1.834 1.374.759 1.267.938 2.053a11.63 11.63 0 0 1 .266 2.555v.388h-4.445v-.453c0-.226-.017-.46-.048-.703a1.98 1.98 0 0 0-.21-.671c-.107-.205-.265-.374-.469-.509s-.48-.202-.824-.202-.621.068-.826.202a1.27 1.27 0 0 0-.46.533c-.103.221-.167.466-.193.736a7.82 7.82 0 0 0-.041.808v5.934l.017 1.504c.01.193.037.393.08.598s.121.39.235.557a1.33 1.33 0 0 0 .452.412c.188.108.435.162.736.162.344 0 .619-.065.824-.193a1.31 1.31 0 0 0 .469-.494 1.94 1.94 0 0 0 .21-.671 5.55 5.55 0 0 0 .048-.711v-.42zm14.867 0h4.445v.372a12.15 12.15 0 0 1-.259 2.579c-.172.792-.479 1.478-.921 2.062s-1.049 1.037-1.819 1.365-1.753.492-2.95.492-2.189-.168-2.975-.508-1.409-.813-1.868-1.416-.778-1.314-.962-2.133-.274-1.708-.274-2.667v-6.111l.015-.89c0-.938.095-1.803.283-2.594s.515-1.472.979-2.038 1.08-1.008 1.851-1.326 1.738-.477 2.902-.477c1.196 0 2.183.167 2.958.501s1.387.792 1.834 1.374.759 1.267.938 2.053a11.63 11.63 0 0 1 .266 2.555v.388h-4.445v-.453c0-.226-.017-.46-.048-.703a1.98 1.98 0 0 0-.21-.671c-.107-.205-.265-.374-.469-.509s-.48-.202-.824-.202-.621.068-.826.202a1.27 1.27 0 0 0-.46.533c-.103.221-.167.466-.193.736a7.82 7.82 0 0 0-.041.808v5.934l.017 1.504c.01.193.037.393.08.598a1.55 1.55 0 0 0 .234.557c.114.168.264.304.453.412s.435.162.736.162c.344 0 .619-.065.824-.193a1.31 1.31 0 0 0 .469-.494 1.94 1.94 0 0 0 .21-.671 5.55 5.55 0 0 0 .048-.711v-.42zm19.555-12.917v19.434h-4.461v-1.73c-.236.623-.563 1.125-.977 1.502s-.963.566-1.642.566c-.992 0-1.805-.174-2.441-.518s-1.138-.816-1.503-1.414-.618-1.307-.752-2.126-.202-1.703-.202-2.651V8.021h4.495v13.192c0 .259.013.523.04.792s.089.512.186.727.249.394.452.533.485.212.841.212c.314 0 .566-.076.762-.227s.344-.346.451-.583a2.81 2.81 0 0 0 .219-.784l.072-.817V8.037h4.46zm2.485-5.157h1.891l3.283 22.875 3.33-22.875h2.861l3.33 22.875h.033l3.264-22.875h1.893l-3.734 24.59h-2.813l-3.396-22.958-3.41 22.958h-2.797l-3.735-24.59zm32.717 18.026v.323l-.041 1.536a9.02 9.02 0 0 1-.201 1.495c-.109.48-.27.929-.486 1.349a3.48 3.48 0 0 1-.887 1.1c-.379.313-.852.561-1.416.744s-1.252.273-2.063.273c-.828 0-1.529-.104-2.1-.314s-1.047-.498-1.424-.865a4.1 4.1 0 0 1-.889-1.275c-.217-.484-.375-1.006-.477-1.56s-.164-1.129-.188-1.723l-.031-1.746v-4.946l.041-1.795a12.02 12.02 0 0 1 .201-1.738 7.66 7.66 0 0 1 .477-1.56 3.88 3.88 0 0 1 .881-1.269c.379-.361.85-.646 1.416-.856s1.252-.315 2.061-.315h.016c.82 0 1.518.097 2.094.291s1.055.456 1.432.784.672.711.881 1.148a6.38 6.38 0 0 1 .477 1.391c.107.49.172.991.193 1.503l.033 1.495v2.975l-8.391 1.375v1.503l.057 2.174c.037.695.158 1.311.363 1.843a2.74 2.74 0 0 0 .971 1.278c.441.318 1.072.477 1.891.477.787 0 1.398-.123 1.836-.371s.76-.588.969-1.02.34-.937.389-1.519l.072-1.875v-.307h1.843zm-5.11-11.414c-.787 0-1.398.151-1.834.453s-.764.717-.979 1.245-.348 1.142-.396 1.843l-.072 2.264v1.794l6.547-1.1v-1.617l-.047-1.819c-.033-.587-.152-1.107-.355-1.56a2.45 2.45 0 0 0-.971-1.091c-.442-.275-1.072-.412-1.893-.412zm9.323 17.979V2.136h1.826v8.213c.131-.377.289-.725.479-1.043a2.98 2.98 0 0 1 .711-.816 3.29 3.29 0 0 1 .994-.534c.377-.129.818-.193 1.326-.193h.016c.787 0 1.455.105 2.004.315s1.004.498 1.359.864a3.98 3.98 0 0 1 .832 1.286c.199.49.348 1.013.443 1.567s.154 1.13.17 1.722l.025 1.746v4.947l-.033 1.794c-.021.604-.08 1.182-.178 1.737s-.244 1.075-.445 1.561-.479.908-.84 1.27-.813.645-1.357.85-1.205.305-1.98.305c-.506 0-.951-.061-1.334-.186a3.04 3.04 0 0 1-.994-.525 3.23 3.23 0 0 1-.711-.799 5.2 5.2 0 0 1-.486-1.012v2.266h-1.827zm5.091-17.979c-.721 0-1.295.157-1.721.469s-.752.733-.979 1.261-.375 1.131-.445 1.811l-.121 2.134v4.461l.018 1.52a14.2 14.2 0 0 0 .104 1.472c.061.474.154.916.283 1.326s.316.767.559 1.074a2.53 2.53 0 0 0 .92.721c.373.172.834.258 1.383.258.775 0 1.385-.15 1.828-.451a2.68 2.68 0 0 0 .979-1.238c.209-.523.338-1.138.387-1.843l.074-2.271v-4.931l-.051-2.183c-.031-.701-.15-1.315-.355-1.843a2.75 2.75 0 0 0-.969-1.269c-.442-.318-1.073-.478-1.894-.478zm13.688-4.817v22.796h-1.859V4.675h-4.525V2.913h10.912v1.762h-4.528zm15.207 16.231v.323l-.039 1.536c-.027.517-.094 1.015-.203 1.495a5.68 5.68 0 0 1-.484 1.349 3.5 3.5 0 0 1-.889 1.1c-.377.313-.85.561-1.416.744s-1.252.273-2.061.273c-.83 0-1.529-.104-2.102-.314s-1.045-.498-1.422-.865-.674-.791-.891-1.275a7.06 7.06 0 0 1-.477-1.56c-.102-.556-.164-1.129-.186-1.723l-.031-1.746v-4.946l.041-1.795c.025-.603.092-1.183.201-1.738a7.66 7.66 0 0 1 .477-1.56 3.85 3.85 0 0 1 .881-1.269c.377-.361.85-.646 1.414-.856s1.254-.315 2.063-.315h.016c.82 0 1.516.097 2.094.291s1.053.456 1.43.784.672.711.881 1.148a6.51 6.51 0 0 1 .479 1.391c.11.491.172.991.193 1.503l.031 1.495v2.975l-8.389 1.375v1.503l.055 2.174c.039.695.16 1.311.365 1.843a2.76 2.76 0 0 0 .969 1.278c.442.319 1.074.477 1.893.477.787 0 1.398-.123 1.834-.371s.76-.588.971-1.02.34-.937.389-1.519l.072-1.875v-.307h1.841zm-5.108-11.414c-.787 0-1.398.151-1.834.453s-.764.717-.979 1.245-.348 1.142-.396 1.843l-.072 2.264v1.794l6.547-1.1v-1.617l-.049-1.819c-.033-.587-.15-1.107-.355-1.56a2.45 2.45 0 0 0-.971-1.091c-.444-.275-1.07-.412-1.891-.412zm17.018 11.689h1.828v.178l-.041 1.43c-.027.491-.092.974-.193 1.447a5.52 5.52 0 0 1-.477 1.342c-.217.42-.514.789-.891 1.107s-.848.57-1.414.76-1.254.281-2.061.281c-.832 0-1.531-.104-2.104-.314s-1.047-.496-1.43-.857a3.74 3.74 0 0 1-.889-1.275 7.79 7.79 0 0 1-.477-1.568c-.109-.556-.172-1.129-.195-1.723l-.033-1.746v-5.496l.018-.89c.021-.797.1-1.563.234-2.295s.389-1.382.76-1.948.883-1.016 1.535-1.351 1.508-.5 2.563-.5c.82 0 1.518.097 2.094.291s1.055.452 1.432.776.67.698.881 1.123a5.87 5.87 0 0 1 .469 1.342 8.53 8.53 0 0 1 .186 1.431l.033 1.39v.21h-1.828v-.21l-.016-1.115a7.56 7.56 0 0 0-.105-1.075c-.059-.34-.156-.658-.291-.955a2.37 2.37 0 0 0-.564-.776c-.244-.22-.551-.393-.922-.517s-.828-.186-1.367-.186c-.785 0-1.396.151-1.834.453s-.764.714-.979 1.237-.348 1.137-.396 1.843l-.072 2.272v4.381l.016 1.697.098 1.584c.053.432.145.833.275 1.204s.314.693.559.962a2.56 2.56 0 0 0 .928.639c.377.157.846.234 1.406.234.777 0 1.383-.129 1.82-.389s.762-.6.977-1.027.348-.917.396-1.477l.072-1.763v-.161zm14.189 6.29V15.264l-.049-2.158c-.033-.695-.15-1.31-.355-1.843s-.531-.962-.979-1.285-1.08-.485-1.898-.485c-.744 0-1.334.186-1.771.558s-.762.862-.977 1.471-.355 1.299-.414 2.069l-.088 2.368v11.512h-1.844V2.136h1.844v8.245c.129-.377.297-.725.502-1.043a3.28 3.28 0 0 1 .752-.824c.295-.232.641-.412 1.033-.542s.844-.194 1.35-.194c.775 0 1.432.105 1.965.315s.975.499 1.324.865a3.95 3.95 0 0 1 .816 1.277c.193.485.338 1.004.43 1.559a12.63 12.63 0 0 1 .162 1.722l.023 1.746v12.207h-1.826zM56.798 42.648c-.483-.461-.725-1.074-.725-1.84v-4.279c0-.766.242-1.379.725-1.838s1.12-.693 1.911-.693c.521 0 .979.105 1.376.314a2.3 2.3 0 0 1 .926.873c.222.375.333.805.333 1.293v.365c0 .086-.043.131-.13.131h-.665c-.088 0-.131-.045-.131-.131v-.365c0-.496-.157-.898-.469-1.207s-.727-.463-1.24-.463-.926.152-1.24.463-.47.719-.47 1.232v4.33c0 .506.159.914.477 1.229s.732.469 1.246.469.924-.146 1.233-.443.462-.695.462-1.199v-1.424c0-.033-.017-.053-.052-.053h-1.526c-.087 0-.13-.043-.13-.129v-.549c0-.086.043-.129.13-.129h2.375c.086 0 .13.043.13.129v2.035c0 .791-.24 1.418-.717 1.879s-1.118.691-1.917.691c-.793.001-1.429-.228-1.912-.691zm10.671-.371c.238-.172.41-.398.515-.686.027-.078.078-.109.157-.092l.6.117c.043.01.071.029.085.061s.014.063.006.098a2.12 2.12 0 0 1-.809 1.146c-.391.279-.866.418-1.422.418-.636 0-1.153-.168-1.553-.502s-.649-.791-.744-1.363c-.035-.217-.056-.475-.065-.77l-.013-.736v-.412l.052-1.082c.068-.582.311-1.053.724-1.41s.933-.535 1.559-.535c.669 0 1.213.193 1.631.574s.652.887.705 1.514c.025.287.04.814.04 1.578 0 .088-.044.131-.131.131h-3.6c-.035 0-.052.018-.052.053l.025.898c.044.375.193.678.451.908s.585.346.985.346c.329 0 .615-.084.854-.254zm-1.853-4.591c-.247.229-.393.533-.437.906l-.025.912c0 .035.018.053.052.053h2.753c.035 0 .052-.018.052-.053 0-.252-.018-.553-.052-.898-.044-.375-.19-.68-.437-.914s-.564-.354-.946-.354c-.392 0-.712.115-.96.348zm8.722-.321h-1.24c-.034 0-.052.018-.052.053v3.914c0 .408.081.693.242.854s.419.242.776.242h.222c.086 0 .131.043.131.129v.549c0 .086-.045.129-.131.129l-.404.014c-.566 0-.997-.115-1.292-.344s-.443-.66-.443-1.287v-4.199c0-.035-.018-.053-.052-.053h-.652c-.086 0-.131-.045-.131-.131v-.469c0-.086.045-.131.131-.131h.652c.034 0 .052-.018.052-.053v-1.488c0-.086.043-.129.13-.129h.64c.086 0 .13.043.13.129v1.488c0 .035.018.053.052.053h1.24c.086 0 .131.045.131.131v.469c-.001.085-.046.13-.132.13z"/><use xlink:href="#B"/><path d="M83.621 42.695c-.483-.432-.725-1.006-.725-1.73v-.352c0-.086.043-.131.131-.131h.639c.088 0 .131.045.131.131v.301c0 .486.165.879.496 1.174s.77.443 1.317.443c.514 0 .917-.139 1.214-.418s.443-.645.443-1.096a1.4 1.4 0 0 0-.209-.77 2.16 2.16 0 0 0-.613-.602c-.27-.182-.657-.412-1.162-.689l-1.271-.758c-.31-.215-.559-.482-.75-.795s-.287-.695-.287-1.148c0-.705.226-1.256.678-1.656s1.057-.602 1.814-.602c.808 0 1.453.223 1.93.666s.717 1.031.717 1.762v.299c0 .088-.043.131-.13.131h-.652c-.086 0-.131-.043-.131-.131v-.285c0-.488-.155-.881-.469-1.182s-.744-.449-1.292-.449c-.486 0-.868.125-1.142.377s-.41.609-.41 1.07c0 .295.065.545.195.744a1.95 1.95 0 0 0 .568.547c.248.164.628.389 1.142.666l1.363.842c.317.23.569.496.757.795s.28.668.28 1.102c0 .732-.236 1.313-.705 1.744s-1.11.645-1.919.645c-.816 0-1.466-.215-1.948-.645zm10.555-.418c.238-.172.41-.398.515-.686.027-.078.078-.109.157-.092l.6.117c.043.01.071.029.085.061s.014.063.006.098a2.12 2.12 0 0 1-.809 1.146c-.391.279-.866.418-1.422.418-.636 0-1.153-.168-1.553-.502s-.649-.791-.744-1.363c-.035-.217-.056-.475-.065-.77l-.013-.736v-.412l.052-1.082c.069-.582.311-1.053.724-1.41s.933-.535 1.559-.535c.669 0 1.213.193 1.631.574s.652.887.705 1.514c.025.287.04.814.04 1.578 0 .088-.044.131-.131.131h-3.6c-.035 0-.052.018-.052.053l.025.898c.044.375.193.678.451.908s.585.346.985.346c.329 0 .615-.084.854-.254zm-1.853-4.591c-.247.229-.393.533-.437.906l-.025.912c0 .035.018.053.052.053h2.753c.035 0 .052-.018.052-.053 0-.252-.018-.553-.052-.898-.044-.375-.19-.68-.437-.914s-.564-.354-.946-.354c-.392 0-.712.115-.96.348zm8.72-.321h-1.239c-.035 0-.052.018-.052.053v3.914c0 .408.08.693.242.854s.419.242.776.242h.222c.087 0 .131.043.131.129v.549c0 .086-.044.129-.131.129l-.404.014c-.565 0-.996-.115-1.292-.344s-.443-.66-.443-1.287v-4.199c0-.035-.018-.053-.052-.053h-.652c-.086 0-.131-.045-.131-.131v-.469c0-.086.044-.131.131-.131h.651c.035 0 .052-.018.052-.053v-1.488c0-.086.043-.129.13-.129h.639c.087 0 .13.043.13.129v1.488c0 .035.018.053.052.053h1.239c.087 0 .131.045.131.131v.469c.002.085-.043.13-.13.13z"/><use xlink:href="#B" x="26.706"/><path d="M110.549 42.648c-.484-.461-.725-1.074-.725-1.84v-4.279c0-.766.24-1.379.725-1.838s1.119-.693 1.91-.693c.521 0 .98.105 1.377.314s.703.5.926.873.332.805.332 1.293v.365c0 .086-.043.131-.129.131h-.666c-.088 0-.131-.045-.131-.131v-.365c0-.496-.156-.898-.469-1.207s-.727-.463-1.24-.463-.926.152-1.24.463-.469.719-.469 1.232v4.33c0 .506.158.914.477 1.229s.732.469 1.246.469.924-.146 1.232-.443.463-.695.463-1.199v-1.424c0-.033-.018-.053-.053-.053h-1.525c-.088 0-.131-.043-.131-.129v-.549c0-.086.043-.129.131-.129h2.375c.086 0 .129.043.129.129v2.035c0 .791-.238 1.418-.717 1.879s-1.117.691-1.918.691c-.791.001-1.428-.228-1.91-.691zm8.238.176c-.408-.344-.656-.807-.744-1.389a13.18 13.18 0 0 1-.076-1.514 12.49 12.49 0 0 1 .076-1.488c.08-.572.324-1.033.738-1.383s.936-.521 1.572-.521 1.158.176 1.572.521c.412.35.658.811.736 1.383.053.35.078.844.078 1.488 0 .66-.025 1.166-.078 1.514-.078.582-.324 1.045-.736 1.389s-.938.516-1.572.516-1.156-.17-1.566-.516zm2.512-.638c.256-.23.412-.537.463-.92a12.95 12.95 0 0 0 .053-1.33l-.053-1.33c-.043-.383-.193-.691-.449-.92s-.576-.348-.959-.348-.701.115-.953.348a1.48 1.48 0 0 0-.457.92c-.035.313-.051.756-.051 1.33l.051 1.33c.045.383.195.689.451.92s.576.346.959.346c.373-.001.689-.116.945-.346zm8.617.919v-8.871c0-.088.043-.131.129-.131h2.545c.773 0 1.385.221 1.834.664s.67 1.051.67 1.814v4.176c0 .766-.223 1.369-.67 1.813s-1.061.664-1.834.664h-2.545c-.086 0-.129-.043-.129-.129zm.979-.677h1.707c.48-.01.857-.168 1.137-.477s.422-.732.43-1.271v-4.02c0-.539-.139-.965-.418-1.277s-.66-.471-1.148-.471h-1.707c-.035 0-.053.018-.053.053v7.408c-.001.037.016.055.052.055zm7.365-7.203a.72.72 0 0 1-.203-.521c0-.217.068-.395.203-.527s.311-.203.527-.203c.209 0 .383.068.521.203s.209.311.209.527c0 .209-.068.383-.209.521s-.313.209-.521.209c-.217 0-.392-.071-.527-.209zm.045 7.88v-6.34c0-.086.043-.131.131-.131h.666c.086 0 .129.045.129.131v6.34c0 .086-.043.129-.129.129h-.666c-.088 0-.131-.043-.131-.129zm7.957-6.47h.666c.086 0 .131.045.131.131v6.287c0 1.967-1.074 2.9-3.223 2.805-.086-.008-.131-.057-.131-.143l.014-.586c0-.045.012-.076.037-.1s.059-.027.092-.02c.818.027 1.404-.123 1.756-.449s.527-.846.527-1.561v-.43c0-.018-.006-.031-.018-.039s-.029-.004-.047.014c-.338.486-.844.73-1.514.73-.557 0-1.021-.168-1.396-.502s-.604-.789-.689-1.363c-.053-.385-.08-.875-.08-1.475 0-.652.031-1.166.092-1.539.068-.566.289-1.02.658-1.357s.834-.51 1.391-.51c.678 0 1.191.24 1.539.719.018.018.031.023.047.02s.018-.016.018-.033v-.469c-.001-.085.044-.13.13-.13zm-.131 3.287l-.039-1.33c-.033-.367-.172-.666-.41-.9s-.547-.354-.92-.354-.686.117-.932.354-.4.533-.451.9c-.035.313-.053.756-.053 1.33l.053 1.305c.045.365.191.666.443.9a1.33 1.33 0 0 0 .939.352c.373 0 .682-.117.92-.352a1.4 1.4 0 0 0 .41-.9c.028-.338.04-.774.04-1.305zm4.117-4.697a.72.72 0 0 1-.203-.521c0-.217.068-.395.203-.527s.311-.203.529-.203a.72.72 0 0 1 .521.203.7.7 0 0 1 .209.527c0 .209-.07.383-.209.521a.71.71 0 0 1-.521.209c-.218 0-.394-.071-.529-.209zm.047 7.88v-6.34c0-.086.043-.131.129-.131h.666c.088 0 .131.045.131.131v6.34c0 .086-.043.129-.131.129h-.666c-.086 0-.129-.043-.129-.129zm6.797-5.74h-1.24c-.035 0-.053.018-.053.053v3.914c0 .408.08.693.242.854s.42.242.775.242h.223c.086 0 .131.043.131.129v.549c0 .086-.045.129-.131.129l-.404.014c-.564 0-.996-.115-1.291-.344s-.443-.66-.443-1.287v-4.199c0-.035-.018-.053-.053-.053h-.652c-.086 0-.131-.045-.131-.131v-.469c0-.086.045-.131.131-.131h.652c.035 0 .053-.018.053-.053v-1.488c0-.086.043-.129.129-.129h.641c.086 0 .129.043.129.129v1.488c0 .035.018.053.053.053h1.24c.086 0 .131.045.131.131v.469c-.001.085-.046.13-.132.13zm6.713-.236c.395.4.594.932.594 1.594v4.383c0 .086-.045.129-.131.129h-.666c-.086 0-.129-.043-.129-.129v-.469c0-.018-.008-.031-.021-.041s-.027-.002-.045.014c-.191.244-.436.428-.73.549s-.625.182-.992.182c-.547 0-1.016-.148-1.402-.443s-.58-.777-.58-1.447c0-.695.223-1.225.672-1.586s1.059-.543 1.832-.543h1.215c.033 0 .053-.016.053-.051v-.496c0-.443-.111-.793-.334-1.051s-.551-.385-.986-.385c-.338 0-.621.086-.846.256s-.363.393-.406.672c-.008.078-.057.117-.143.117l-.717-.039c-.045 0-.076-.014-.098-.039a.1.1 0 0 1-.021-.092c.061-.504.299-.91.711-1.221s.926-.463 1.535-.463c.693-.001 1.238.2 1.635.599zm-.809 5.043c.316-.238.477-.572.477-.998v-1.057c0-.033-.02-.053-.053-.053h-1.148c-.496 0-.893.115-1.188.348s-.443.559-.443.982c0 .385.111.668.34.857s.52.279.887.279c.433.001.81-.118 1.128-.358zm4.416.933v-8.871c0-.088.043-.131.129-.131h.666c.088 0 .131.043.131.131v8.871c0 .086-.043.129-.131.129h-.666c-.086 0-.129-.043-.129-.129zm12.524.012l-.432-1.631c-.008-.025-.029-.037-.064-.037h-3.119c-.033 0-.055.012-.064.037l-.432 1.631c-.018.08-.064.117-.143.117h-.678c-.043 0-.076-.012-.1-.037s-.027-.061-.018-.105l2.439-8.871c.016-.078.064-.117.143-.117h.836c.078 0 .125.039.143.117l2.453 8.91c0 .07-.045.104-.131.104h-.691a.13.13 0 0 1-.142-.118zm-3.452-2.445c.012.012.027.02.045.02h2.701c.018 0 .031-.008.047-.02s.014-.023.006-.033l-1.385-5.244c-.008-.018-.018-.025-.025-.025s-.018.008-.025.025l-1.371 5.244c-.008.009-.006.019.007.033zm10.536-4.037h.666c.086 0 .129.045.129.131v6.287c0 1.967-1.072 2.9-3.221 2.805-.088-.008-.131-.057-.131-.143l.014-.586c0-.045.012-.076.037-.1s.059-.027.092-.02c.818.027 1.402-.123 1.756-.449s.527-.846.527-1.561v-.43c0-.018-.006-.031-.02-.039s-.029-.004-.045.014c-.34.486-.844.73-1.514.73-.557 0-1.021-.168-1.396-.502s-.604-.789-.689-1.363c-.053-.385-.08-.875-.08-1.475 0-.652.031-1.166.092-1.539.068-.566.289-1.02.658-1.357s.834-.51 1.391-.51c.678 0 1.191.24 1.539.719.016.018.031.023.045.02s.02-.016.02-.033v-.469c-.001-.085.042-.13.13-.13zm-.131 3.287l-.039-1.33c-.035-.367-.172-.666-.41-.9s-.547-.354-.92-.354-.686.117-.934.354-.398.533-.449.9c-.035.313-.053.756-.053 1.33l.053 1.305c.043.365.191.666.443.9s.564.352.939.352.68-.117.92-.352a1.4 1.4 0 0 0 .41-.9c.028-.338.04-.774.04-1.305zm7.091 2.355c.238-.172.41-.398.516-.686.025-.078.076-.109.156-.092l.6.117c.043.01.072.029.086.061s.014.063.006.098c-.148.486-.418.869-.809 1.146s-.867.418-1.422.418c-.637 0-1.154-.168-1.553-.502s-.648-.791-.744-1.363c-.035-.217-.057-.475-.066-.77l-.012-.736v-.412l.053-1.082c.068-.582.311-1.053.723-1.41s.934-.535 1.561-.535c.668 0 1.213.193 1.631.574s.652.887.703 1.514a21.09 21.09 0 0 1 .041 1.578c0 .088-.045.131-.133.131h-3.6c-.035 0-.053.018-.053.053l.025.898c.045.375.193.678.451.908s.586.346.984.346c.331 0 .616-.084.856-.254zm-1.853-4.591c-.248.229-.393.533-.438.906l-.025.912c0 .035.018.053.053.053h2.754c.033 0 .051-.018.051-.053a9.69 9.69 0 0 0-.051-.898c-.045-.375-.191-.68-.438-.914s-.564-.354-.947-.354c-.391 0-.711.115-.959.348zm10.268-.563c.354.389.529.916.529 1.586v4.396c0 .086-.043.129-.131.129h-.666c-.086 0-.131-.043-.131-.129V38.84c0-.453-.117-.813-.352-1.084s-.557-.404-.965-.404-.738.137-.984.412-.373.641-.373 1.102v4.24c0 .086-.043.129-.131.129h-.664c-.088 0-.131-.043-.131-.129v-6.34c0-.086.043-.131.131-.131h.664c.088 0 .131.045.131.131v.508c0 .018.008.031.02.039s.027.004.047-.012c.338-.504.861-.758 1.564-.758.61 0 1.09.195 1.442.58zm4.259 5.701c-.408-.344-.656-.807-.744-1.389-.051-.443-.076-.947-.076-1.514a16.6 16.6 0 0 1 .076-1.5 2.1 2.1 0 0 1 .744-1.371c.418-.346.936-.521 1.553-.521s1.137.166 1.559.496.668.744.738 1.24l.039.273v.025c0 .035-.012.064-.033.086s-.051.031-.084.031l-.666.041c-.078 0-.125-.041-.145-.117 0-.08-.004-.131-.012-.158-.043-.303-.193-.566-.449-.783s-.572-.326-.947-.326c-.383 0-.697.117-.945.354s-.395.539-.438.914-.064.816-.064 1.33l.064 1.342c.043.385.189.689.438.916s.563.338.945.338.703-.109.959-.326.402-.484.438-.795l.012-.105c.02-.096.066-.135.145-.117l.652.053c.078.018.117.057.117.117v.053c0 .033-.008.086-.025.156-.061.512-.303.938-.725 1.271s-.945.502-1.572.502-1.144-.17-1.554-.516zm6.303 3.02v-.652c0-.086.043-.129.129-.129h.025c.305-.01.543-.061.713-.156s.313-.266.43-.51.236-.617.359-1.121c.008-.01.008-.035 0-.078l-1.957-6.459c0-.07.043-.104.129-.104h.705c.08 0 .127.039.145.117l1.422 5.205c.008.018.02.027.033.027s.023-.01.031-.027l1.424-5.205c.016-.078.064-.117.143-.117h.691c.043 0 .076.014.098.039s.029.061.02.104l-2.127 7.033c-.174.582-.344 1.012-.516 1.291s-.383.471-.639.58-.619.162-1.088.162h-.17z"/></g><defs ><path id="B" d="M76.765 39.453v-.549c0-.088.043-.131.13-.131h3.418c.086 0 .13.043.13.131v.549c0 .086-.043.131-.13.131h-3.418c-.087 0-.13-.045-.13-.131z"/></defs></svg>